<?xml version="1.0" encoding="UTF-8" standalone="no"?>
<!-- Created with Inkscape (http://www.inkscape.org/) -->

<svg
   xmlns:dc="http://purl.org/dc/elements/1.1/"
   xmlns:cc="http://creativecommons.org/ns#"
   xmlns:rdf="http://www.w3.org/1999/02/22-rdf-syntax-ns#"
   xmlns:svg="http://www.w3.org/2000/svg"
   xmlns="http://www.w3.org/2000/svg"
   xmlns:sodipodi="http://sodipodi.sourceforge.net/DTD/sodipodi-0.dtd"
   xmlns:inkscape="http://www.inkscape.org/namespaces/inkscape"
   width="80mm"
   height="80mm"
   viewBox="0 0 79.999999 80"
   version="1.1"
   id="svg8"
   sodipodi:docname="bootsplash_logo_original.svg"
   inkscape:export-filename="C:\Users\ainar.DESKTOP-Q82NSUJ\ReactNative\JazzOrca\assets\player_icon.png"
   inkscape:export-xdpi="29.209999"
   inkscape:export-ydpi="29.209999"
   inkscape:version="0.92.4 (5da689c313, 2019-01-14)">
  <defs
     id="defs2" />
  <sodipodi:namedview
     id="base"
     pagecolor="#ffffff"
     bordercolor="#666666"
     borderopacity="1.0"
     inkscape:pageopacity="0.0"
     inkscape:pageshadow="2"
     inkscape:zoom="1.979899"
     inkscape:cx="81.805285"
     inkscape:cy="131.69128"
     inkscape:document-units="mm"
     inkscape:current-layer="layer1"
     showgrid="false"
     fit-margin-top="0"
     fit-margin-left="0"
     fit-margin-right="0"
     fit-margin-bottom="0"
     inkscape:window-width="1920"
     inkscape:window-height="1057"
     inkscape:window-x="-8"
     inkscape:window-y="-8"
     inkscape:window-maximized="1" />
  <metadata
     id="metadata5">
    <rdf:RDF>
      <cc:Work
         rdf:about="">
        <dc:format>image/svg+xml</dc:format>
        <dc:type
           rdf:resource="http://purl.org/dc/dcmitype/StillImage" />
        <dc:title></dc:title>
      </cc:Work>
    </rdf:RDF>
  </metadata>
  <g
     inkscape:label="Calque 1"
     inkscape:groupmode="layer"
     id="layer1"
     transform="translate(-32.20563,-49.682303)">
    <path
       style="fill:#ffffff;stroke:#ffffff;stroke-width:0.74120826;stroke-miterlimit:10"
       inkscape:connector-curvature="0"
       stroke-miterlimit="10"
       d="m 98.539401,84.558862 c 0.120917,1.389699 -0.04925,5.356706 -1.002259,6.770132 -1.93889,2.514171 -2.876126,2.75481 -3.807133,2.629734 -0.551911,0.06368 -0.790431,-1.42562 -0.875785,-2.00013 -0.227055,-0.618191 -0.135878,-4.723262 0.09802,-6.193532 0.413419,-1.365771 5.587154,-1.206204 5.587154,-1.206204 z"
       id="path872" />
    <path
       style="fill:#ffffff;stroke:#ffffff;stroke-width:0.74120826;stroke-miterlimit:10"
       inkscape:connector-curvature="0"
       stroke-miterlimit="10"
       d="m 43.094301,102.88479 c 0,0 0.04734,6.28207 -2.239357,7.72052 -2.307084,1.48933 -6.013952,1.17129 -6.726602,2.37887 -0.726813,1.25627 -1.569933,2.20603 -1.551816,3.62811 0.962723,-0.13973 0.708803,-1.67916 1.958054,-0.43565 1.076931,1.19304 2.355892,1.71787 3.503415,1.58375 1.279774,-0.0737 0.560098,1.15945 1.396757,1.303 0.864554,-0.0938 2.986452,-0.51846 4.608332,2.21952 1.576267,2.6484 1.596786,2.5146 1.596786,2.5146 0,0 1.163901,4.27608 0.423319,5.49652 1.052576,-0.0276 5.479314,-0.94152 3.630171,-7.18587 -1.88559,-6.11955 -4.625906,-7.10545 -3.514229,-9.53576 1.040048,-2.24096 7.324063,-10.65964 11.278963,-14.25451 2.079781,-2.04714 5.463724,-4.303895 10.144573,-5.89775 5.992676,-1.792532 14.42797,-0.598649 21.302265,-4.197214 5.551843,-3.141299 24.804968,-7.922227 21.932308,-9.552376 1.14282,-2.320479 -2.741,-7.676031 -7.25824,-11.291238 -4.291885,-3.483005 -22.150337,-4.010293 -24.758765,-4.075628 -0.994441,-0.0411 -10.110549,-11.728871 -14.883692,-13.983893 0,0 -3.504998,-0.355935 1.425066,5.142249 0.942161,0.245444 9.648895,10.272335 1.19546,12.921473 -9.596292,3.102689 -24.658105,10.905181 -23.462768,35.501277 z"
       id="path874" />
  </g>
  <g
     inkscape:groupmode="layer"
     id="layer2"
     inkscape:label="taches"
     transform="translate(0.03592012,-0.80771825)">
    <path
       style="fill:#000000;stroke:#000000;stroke-width:0.75271398;stroke-miterlimit:10"
       inkscape:connector-curvature="0"
       stroke-miterlimit="10"
       d="m 42.190584,42.723378 c -11.63428,1.363762 -17.727795,7.759156 -17.727795,7.759156 0.109851,-1.54749 7.780966,-13.682866 18.423078,-17.782952 4.784609,-2.02005 6.198419,9.357203 5.483454,9.365336 -2.071718,0.250111 -4.243539,0.404049 -6.178737,0.65846 z"
       id="path876" />
    <path
       transform="translate(-32.241551,-48.874585)"
       style="fill:#000000;stroke-width:0.18530206"
       inkscape:connector-curvature="0"
       d="m 93.445694,74.811985 c 1.957416,-5.157365 7.000456,-6.176603 8.060886,-3.106572 0.92334,2.483548 -1.33031,3.932147 -2.74278,4.305371 -1.537831,0.670155 -7.044559,3.431987 -5.318106,-1.198799 z"
       id="path878" />
    <path
       style="fill:#000000;stroke:#000000;stroke-width:0.74120826;stroke-miterlimit:10"
       inkscape:connector-curvature="0"
       stroke-miterlimit="10"
       d="m 87.616597,88.678548 c 1.369089,-3.396497 -0.967013,-8.25725 8.301624,-9.351566 1.853567,-0.293246 18.259379,-2.143703 14.592369,0.485605 -5.09807,3.584527 -5.50085,3.239142 -13.441735,6.293848 z"
       id="path880"
       transform="translate(-32.241551,-48.874585)" />
  </g>
  <g
     inkscape:groupmode="layer"
     id="layer3"
     inkscape:label="aile avant"
     transform="translate(0.03592012,-0.80771825)">
    <path
       style="fill:#ffffff;stroke:#ffffff;stroke-width:0.74120826;stroke-miterlimit:10"
       inkscape:connector-curvature="0"
       stroke-miterlimit="10"
       d="m 92.890152,77.318555 c -0.11648,0.936948 -2.406434,3.376024 -3.60659,3.842147 -1.343717,0.433522 -6.363368,7.422465 -6.475749,10.502065 -0.0844,3.18037 0.802065,4.007033 1.373408,4.646886 0.591468,0.578147 7.057615,-3.825178 7.894502,-6.128278 0.769702,-2.17587 2.688617,-5.460868 2.771649,-6.882249 0.0771,-1.567417 0.235587,-4.565594 0.235587,-4.565594"
       id="path882"
       transform="translate(-32.241551,-48.874585)"
       sodipodi:nodetypes="ccccccc" />
  </g>
</svg>
