<svg xmlns="http://www.w3.org/2000/svg" id="SvgjsSvg1863" width="2640" height="2234.507318545345" version="1.1" xmlns:xlink="http://www.w3.org/1999/xlink" xmlns:svgjs="http://svgjs.com/svgjs"><defs id="SvgjsDefs1864"></defs><g id="SvgjsG1865" transform="translate(120, 120) scale(24)" opacity="1"><defs id="SvgjsDefs1156"></defs><g id="SvgjsG1157" transform="scale(0.502992807202857)" opacity="1"><g id="SvgjsG1158" class="HkCMX_qxz" transform="translate(73.62887863236898, 0) scale(0.21066938211207717)" fill="#132584"><path fill-rule="evenodd" clip-rule="evenodd" d="M66.719 250.246c10.056-2.388 23.136-2.497 29.022-13.188C26.282 223.888 6.417 238.711 0 257.754c.589.463 6.875-.044 7.509 0 30.626 2.168 35.485 12.341 24.826 41.42-4.218 11.499-9.258 22.698-13.302 34.253-8.798 25.136.335 45.965 17.955 68.556-6.321-27.848 4.358-46.745 19.517-63.973 23.329-26.519 30.231-55.109 10.214-87.764z"></path><path d="M102.867 285.896C127.406 167.838 55.878 0 55.878 0c52.328 28.221 86.364 63.887 104.847 99.895 28.88 56.262 8.923 148.364 8.923 148.364 26.79-52.592 12.182-109.986 15.526-105.271 3.344 4.714 30.776 26.123 38.796 58.054 13.768 54.831-28.454 119.63-28.454 119.63 22.456-20.259 38.813-73.074 38.813-73.074s13.472 15.801 9.717 53.429c-5.446 54.58-63.969 81.744-63.969 81.744 10.325 2.578 45.537-19.664 45.537-19.664-7.427 19.481-20.755 38.636-30.027 45.521-17.246 12.811-54.652 14.804-54.652 14.804 14.884 5.012 29.916 4.239 29.916 4.239-34.292 31.525-82.289 11.78-82.289 11.78 11.066 10.983 16.54 14.089 19.194 14.758-12.016 4.858-37.757-2.215-53.315-21.482-7.562-9.364-18.773-37.628-11.264-58.324 8.092-22.301 20.65-35.746 33.791-45.153 6.833-4.894 22.735-28.128 25.899-43.354z"></path></g><g id="SvgjsG1159" class="text" transform="translate(-1.3799999999999955, 136.66)" light-content="false" fill="#5f5757"><path d="M10.65-8.84C14.06-8.84 16.63-9.71 18.36-11.46C20.10-13.20 20.97-15.43 20.97-18.14C20.97-19.89 20.36-21.28 19.15-22.31C17.94-23.34 16.08-23.86 13.57-23.86C11.87-23.86 10.01-23.76 7.98-23.57C5.95-23.38 4.51-23.21 3.66-23.05L3.53-22.24L3.90-21.77C4.17-21.48 4.43-21.09 4.69-20.60C4.94-20.10 5.07-19.67 5.07-19.29C5.07-18.05 4.46-14.87 3.23-9.73C1.99-4.59 1.38-1.31 1.38 0.10C1.89 0.17 2.43 0.20 2.99 0.20C5.03 0.20 6.68-0.09 7.93-0.67C7.93-2.06 8.38-4.79 9.27-8.87C9.56-8.85 10.02-8.84 10.65-8.84ZM10.58-11.73L9.95-11.73C11.20-17.28 11.83-20.50 11.83-21.37L12.90-21.50C13.98-21.50 14.52-20.69 14.52-19.05C14.52-17.04 14.17-15.31 13.49-13.88C12.81-12.44 11.84-11.73 10.58-11.73ZM30.64-22.88C30.64-23.69 30.56-24.28 30.41-24.66C28.50-24.66 26.47-24.36 24.29-23.76C24.38-23.31 24.43-22.79 24.43-22.21C24.43-20.31 23.76-16.61 22.43-11.12C21.10-5.63 20.43-2.20 20.43-0.81C20.43-0.16 20.50 0.20 20.63 0.27C22.44 0.27 24.49-0.03 26.78-0.64L26.75-1.44C26.75-3.12 27.25-6.10 28.26-10.38C28.93-10.83 29.50-11.05 29.97-11.05C30.31-11.05 30.48-10.81 30.48-10.33C30.48-9.85 30.24-8.69 29.77-6.85C29.30-5.02 29.06-3.63 29.06-2.69C29.06-0.63 29.97 0.40 31.79 0.40C32.73 0.40 33.81 0.17 35.03-0.30C36.25-0.77 37.21-1.27 37.90-1.78L37.30-3.46L35.55-2.99C35.37-2.99 35.28-3.28 35.28-3.86C35.28-4.45 35.53-5.68 36.02-7.58C36.51-9.47 36.76-10.86 36.76-11.74C36.76-12.63 36.49-13.37 35.95-13.96C35.41-14.55 34.59-14.85 33.48-14.85C32.37-14.85 30.86-14.30 28.93-13.20C30.07-18.09 30.64-21.31 30.64-22.88ZM44.18 0.40C46.36 0.40 48.17-0.41 49.63-2.05C51.08-3.68 52.06-5.69 52.55-8.06C54.01-8.36 55.24-8.76 56.25-9.27L56.21-9.64C56.15-10.43 56.03-10.90 55.88-11.05L55.41-10.92C54.56-10.67 53.66-10.53 52.72-10.48C52.65-11.89 52.38-12.98 51.90-13.74C51.41-14.50 50.61-14.88 49.49-14.88C49.02-14.88 48.52-14.81 47.98-14.65L46.47-14.78C44.09-14.78 42.18-13.93 40.72-12.21C39.27-10.50 38.54-8.41 38.54-5.95C38.54-3.93 39.04-2.37 40.05-1.26C41.06-0.15 42.44 0.40 44.18 0.40ZM44.86-6.08C44.86-7.29 45.03-8.51 45.38-9.73C45.72-10.95 46.09-11.76 46.47-12.16C46.58-12.23 46.75-12.26 46.97-12.26C46.91-11.86 46.87-11.47 46.87-11.09C46.87-8.89 48.01-7.80 50.30-7.80C50.01-6.45 49.48-5.31 48.70-4.37C47.93-3.43 47.17-2.96 46.44-2.96C45.38-2.96 44.86-4.00 44.86-6.08ZM53.52-6.08C53.52-3.98 54.05-2.37 55.09-1.26C56.13-0.15 57.60 0.40 59.51 0.40C60.36 0.40 61.21 0.29 62.06 0.05C62.91-0.18 63.61-0.45 64.16-0.74C64.71-1.03 65.23-1.37 65.74-1.76C66.24-2.16 66.56-2.42 66.70-2.55L67.07-2.92L65.99-4.37L65.42-4.03C65.04-3.79 64.52-3.54 63.87-3.31C63.22-3.07 62.63-2.96 62.09-2.96C60.86-2.96 60.12-3.70 59.88-5.17L60.72-5.28C61.97-5.43 63.45-5.89 65.15-6.65C65.96-7.03 66.64-7.58 67.20-8.30C67.76-9.02 68.04-9.83 68.04-10.75C68.04-12.01 67.52-13.01 66.48-13.76C65.44-14.51 64.05-14.88 62.33-14.88C59.84-14.88 57.75-14.11 56.06-12.57C54.37-11.02 53.52-8.86 53.52-6.08ZM61.69-8.99C61.04-8.01 60.39-7.48 59.74-7.39C59.81-9.00 60.08-10.25 60.55-11.12C61.02-12.00 61.53-12.43 62.09-12.43C62.47-12.43 62.66-12.10 62.66-11.44C62.66-10.78 62.34-9.96 61.69-8.99ZM69.25 0.20C71.92 0.20 73.80-0.01 74.89-0.44C74.89-1.87 75.25-4.21 75.97-7.46C76.33-9.00 76.55-9.98 76.64-10.38C77.31-10.83 77.85-11.05 78.25-11.05C78.57-11.05 78.72-10.81 78.72-10.33C78.72-9.85 78.49-8.65 78.02-6.72C77.55-4.79 77.31-3.40 77.31-2.55C77.31-0.58 78.27 0.40 80.17 0.40C81.13 0.40 82.19 0.17 83.34-0.29C84.50-0.74 85.43-1.24 86.15-1.78L85.55-3.46L83.76-2.99C83.61-2.99 83.53-3.28 83.53-3.85C83.53-4.42 83.78-5.66 84.27-7.56C84.76-9.46 85.01-10.85 85.01-11.71C85.01-12.57 84.74-13.31 84.20-13.93C83.66-14.54 82.92-14.85 81.98-14.85C80.60-14.85 78.88-14.22 76.84-12.97C76.75-13.53 76.60-14.07 76.37-14.58C73.08-14.58 70.77-14.37 69.45-13.94L69.38-13.44L69.69-13.14C69.89-12.94 70.09-12.63 70.29-12.23C70.49-11.83 70.59-11.41 70.59-10.99C70.59-10.56 70.27-8.94 69.64-6.12C69.00-3.29 68.68-1.19 68.68 0.20ZM94.32-8.01C94.88-10.09 95.16-11.62 95.16-12.62C95.16-13.61 94.98-14.31 94.62-14.72C91.26-14.72 89.00-14.54 87.83-14.18L87.73-13.61L88.00-13.24C88.58-12.50 88.87-11.72 88.87-10.89C88.87-10.35 88.60-9.08 88.05-7.07C87.50-5.07 87.23-3.58 87.23-2.60C87.23-1.63 87.49-0.88 88.02-0.37C88.54 0.15 89.26 0.40 90.18 0.40C91.10 0.40 92.13 0.18 93.26-0.27C94.39-0.72 95.33-1.23 96.10-1.81L95.49-3.49L95.19-3.36C94.54-3.14 94.09-3.02 93.84-3.02C93.60-3.02 93.48-3.34 93.48-3.96C93.48-4.59 93.76-5.94 94.32-8.01ZM90.27-18.14C90.84-17.61 91.63-17.34 92.65-17.34C93.67-17.34 94.52-17.65 95.21-18.28C95.89-18.91 96.23-19.64 96.23-20.50C96.23-21.35 95.95-22.01 95.39-22.48C94.83-22.95 94.05-23.18 93.04-23.18C92.03-23.18 91.17-22.90 90.47-22.33C89.76-21.76 89.41-21.05 89.41-20.21C89.41-19.37 89.70-18.68 90.27-18.14ZM108.90-3.02C108.23-3.02 107.41-4.67 106.44-7.96C108.37-9.71 109.88-11.63 110.98-13.71L110.54-13.94C109.63-14.44 108.70-14.73 107.76-14.82C107.60-14.41 107.45-13.92 107.32-13.34C107.27-13.14 107.14-12.81 106.92-12.36L106.58-11.69C106.42-11.38 106.14-10.92 105.74-10.32L105.07-12.67C104.91-13.18 104.69-13.64 104.40-14.03C104.10-14.42 103.85-14.65 103.62-14.72C101.02-14.63 98.93-14.37 97.34-13.94L97.24-13.44C98.13-12.54 98.67-11.87 98.85-11.42C99.30-10.55 99.90-8.96 100.67-6.65C98.60-4.97 96.89-3.00 95.52-0.74C95.93-0.45 96.49-0.18 97.20 0.05C97.92 0.29 98.53 0.40 99.02 0.40C99.80-1.68 100.62-3.23 101.47-4.23C101.85-3.11 102.11-2.40 102.24-2.08C102.58-1.16 103.00-0.52 103.49-0.15C103.98 0.22 104.66 0.40 105.54 0.40C106.41 0.40 107.42 0.16 108.58-0.34C109.73-0.83 110.58-1.34 111.12-1.88L110.38-3.53C109.66-3.19 109.17-3.02 108.90-3.02ZM113.64-4.30C113.64-2.91 114.00-1.78 114.74-0.91C115.48-0.03 116.59 0.40 118.05 0.40C119.52 0.40 121.14-0.32 122.91-1.78C124.68-3.24 126.22-5.00 127.55-7.07C128.87-9.14 129.96-11.33 130.82-13.64C131.68-15.95 132.12-17.94 132.12-19.62C132.12-20.74 131.71-21.72 130.91-22.56C130.10-23.40 128.98-23.82 127.55-23.82C127.30-23.82 126.96-23.63 126.54-23.25C126.11-22.87 125.66-22.19 125.19-21.22C124.72-20.24 124.40-19.11 124.22-17.81L127.81-15.39C127.70-13.91 127.23-12.29 126.39-10.53C125.55-8.78 124.61-7.32 123.58-6.17C122.55-5.01 121.70-4.44 121.03-4.44C120.44-4.44 120.15-5.07 120.15-6.35C120.15-6.96 120.43-9.00 120.99-12.50C121.55-15.99 121.83-18.82 121.83-20.97C121.83-22.06 121.64-22.99 121.26-23.76C117.95-23.76 115.21-23.53 113.06-23.08L112.93-22.41L113.27-21.97C113.94-20.99 114.39-20.12 114.61-19.35C114.74-18.82 114.81-17.79 114.81-16.26C114.81-14.74 114.62-12.59 114.22-9.81C113.83-7.03 113.64-5.20 113.64-4.30ZM146.90-8.42C147.24-10.42 147.64-12.15 148.11-13.61C146.16-14.39 144.38-14.78 142.77-14.78C142.65-14.60 142.51-14.31 142.33-13.91C141.12-14.56 139.93-14.88 138.77-14.88C136.64-14.88 134.93-13.92 133.63-12.00C132.33-10.07 131.68-7.84 131.68-5.31C131.68-3.47 132.05-2.06 132.79-1.08C133.53-0.09 134.57 0.40 135.93 0.40C137.28 0.40 138.85-0.22 140.62-1.48C141.00-0.22 141.92 0.40 143.37 0.40C144.22 0.40 145.20 0.17 146.31-0.29C147.42-0.74 148.33-1.25 149.05-1.81L148.44-3.49L146.76-3.02C146.52-3.02 146.40-3.42 146.40-4.22C146.40-5.01 146.56-6.41 146.90-8.42ZM138.23-3.60C138.07-3.89 138.00-4.60 138.00-5.73C138.00-6.86 138.16-8.13 138.50-9.54C138.68-10.28 138.94-10.90 139.29-11.39C139.64-11.88 140.03-12.13 140.46-12.13C140.90-12.13 141.29-12.03 141.62-11.83C140.86-8.98 140.44-6.26 140.35-3.66C139.94-3.33 139.53-3.16 139.10-3.16C138.68-3.16 138.39-3.30 138.23-3.60ZM155.80-0.27C156.97-0.72 157.91-1.25 158.63-1.88L157.82-3.53L157.45-3.36C156.71-3.07 156.23-2.92 156.00-2.92C155.74-2.92 155.60-3.32 155.60-4.10C155.60-4.88 156.17-7.83 157.30-12.95C158.43-18.07 159.00-21.39 159.00-22.92C159.00-23.72 158.89-24.30 158.69-24.66C156.72-24.66 154.68-24.37 152.58-23.79C152.71-23.03 152.78-22.40 152.78-21.91C152.78-19.62 152.21-16.12 151.08-11.41C149.95-6.69 149.39-3.82 149.39-2.79C149.39-1.76 149.69-0.97 150.29-0.42C150.90 0.13 151.68 0.40 152.63 0.40C153.58 0.40 154.64 0.18 155.80-0.27ZM165.78-0.27C166.95-0.72 167.89-1.25 168.60-1.88L167.80-3.53L167.43-3.36C166.69-3.07 166.21-2.92 165.98-2.92C165.72-2.92 165.58-3.32 165.58-4.10C165.58-4.88 166.15-7.83 167.28-12.95C168.41-18.07 168.97-21.39 168.97-22.92C168.97-23.72 168.87-24.30 168.67-24.66C166.70-24.66 164.66-24.37 162.56-23.79C162.69-23.03 162.76-22.40 162.76-21.91C162.76-19.62 162.19-16.12 161.06-11.41C159.93-6.69 159.36-3.82 159.36-2.79C159.36-1.76 159.67-0.97 160.27-0.42C160.88 0.13 161.66 0.40 162.61 0.40C163.56 0.40 164.62 0.18 165.78-0.27ZM169.18-6.08C169.18-3.98 169.70-2.37 170.74-1.26C171.78-0.15 173.25 0.40 175.16 0.40C176.01 0.40 176.86 0.29 177.71 0.05C178.56-0.18 179.26-0.45 179.81-0.74C180.36-1.03 180.89-1.37 181.39-1.76C181.89-2.16 182.21-2.42 182.35-2.55L182.72-2.92L181.64-4.37L181.07-4.03C180.69-3.79 180.17-3.54 179.52-3.31C178.88-3.07 178.28-2.96 177.74-2.96C176.51-2.96 175.77-3.70 175.53-5.17L176.37-5.28C177.62-5.43 179.10-5.89 180.80-6.65C181.61-7.03 182.29-7.58 182.85-8.30C183.41-9.02 183.69-9.83 183.69-10.75C183.69-12.01 183.17-13.01 182.13-13.76C181.09-14.51 179.70-14.88 177.98-14.88C175.49-14.88 173.40-14.11 171.71-12.57C170.02-11.02 169.18-8.86 169.18-6.08ZM177.34-8.99C176.69-8.01 176.04-7.48 175.39-7.39C175.46-9.00 175.73-10.25 176.20-11.12C176.67-12.00 177.18-12.43 177.74-12.43C178.12-12.43 178.32-12.10 178.32-11.44C178.32-10.78 177.99-9.96 177.34-8.99ZM199.92-14.65C199.02-14.65 197.99-14.55 196.81-14.36C195.64-14.17 194.76-13.94 194.17-13.68C194.04-12.80 193.81-11.19 193.49-8.85C193.16-6.51 192.91-4.77 192.73-3.63C192.24-3.43 191.80-3.33 191.42-3.33C190.75-3.33 190.41-3.67 190.41-4.37C190.41-4.77 190.66-6.12 191.17-8.40C191.67-10.68 191.92-12.22 191.92-13.02C191.92-13.82 191.83-14.35 191.65-14.62C190.20-14.62 188.15-14.34 185.51-13.78C185.62-13.37 185.67-12.76 185.67-11.93C185.67-11.10 185.43-9.60 184.93-7.44C184.44-5.28 184.20-3.83 184.20-3.09C184.20-0.99 185.27 0.07 187.42 0.07C188.99 0.07 190.65-0.40 192.39-1.34C192.35-1.10 192.24-0.55 192.06 0.30C190.33 0.68 188.88 1.16 187.69 1.75C187.00 2.08 186.46 2.50 186.09 3.01C185.72 3.51 185.54 4.15 185.54 4.92C185.54 5.70 185.89 6.32 186.60 6.80C187.30 7.29 188.23 7.53 189.37 7.53C193.18 7.53 195.94 4.70 197.67-0.94C198.36-3.18 199.01-6.50 199.62-10.89C199.89-12.81 200.08-14.07 200.19-14.65ZM187.92 4.27C187.92 3.39 189.15 2.74 191.59 2.32C191.25 3.21 190.81 3.89 190.26 4.35C189.71 4.81 189.27 5.04 188.93 5.04C188.26 5.04 187.92 4.78 187.92 4.27Z"></path></g><g id="SvgjsG1160" class="text" transform="translate(50.51, 165.04)" light-content="false" fill="#9e9e9e"><path d="M3.37-6.68L3.37-11.45L5.20-11.45C6.29-11.45 7.08-11.27 7.57-10.89C8.05-10.52 8.30-9.93 8.30-9.12C8.30-8.31 8.06-7.71 7.58-7.29C7.10-6.88 6.33-6.68 5.29-6.68ZM3.37-5.31L5.92-5.31L9.04 0L10.92 0L7.40-5.76C9.12-6.35 9.98-7.50 9.98-9.20C9.98-10.42 9.59-11.33 8.83-11.94C8.06-12.55 6.88-12.85 5.29-12.85L1.75-12.85L1.75 0L3.37 0ZM18.69 0L19.84 0L19.84-6.57C19.84-7.70 19.55-8.52 18.98-9.04C18.42-9.55 17.55-9.81 16.38-9.81C15.82-9.81 15.25-9.74 14.68-9.59C14.10-9.44 13.57-9.24 13.09-8.98L13.57-7.80C13.97-7.98 14.40-8.15 14.85-8.31C15.30-8.46 15.79-8.53 16.29-8.53C16.99-8.53 17.50-8.36 17.82-8.01C18.13-7.66 18.29-7.12 18.29-6.39L18.29-5.82L16.66-5.76C13.57-5.66 12.02-4.64 12.02-2.68C12.02-1.77 12.29-1.07 12.83-0.57C13.37-0.07 14.12 0.18 15.06 0.18C15.79 0.18 16.39 0.07 16.87-0.15C17.35-0.36 17.83-0.77 18.31-1.37L18.38-1.37ZM15.42-1.10C14.87-1.10 14.44-1.23 14.13-1.50C13.82-1.77 13.67-2.16 13.67-2.66C13.67-3.33 13.92-3.82 14.43-4.13C14.93-4.44 15.74-4.62 16.85-4.66L18.27-4.72L18.27-3.85C18.27-2.97 18.02-2.29 17.51-1.81C17.01-1.34 16.31-1.10 15.42-1.10ZM26.69 0.18C27.68 0.18 28.51 0.00 29.18-0.34L29.18-1.75C28.36-1.37 27.52-1.19 26.67-1.19C25.77-1.19 25.08-1.50 24.62-2.11C24.16-2.73 23.92-3.62 23.92-4.79C23.92-6.00 24.16-6.92 24.62-7.53C25.08-8.14 25.80-8.45 26.77-8.45C27.35-8.45 28.04-8.29 28.85-7.99L29.34-9.31C29.04-9.46 28.66-9.58 28.20-9.68C27.74-9.78 27.28-9.83 26.81-9.83C25.36-9.83 24.24-9.39 23.46-8.51C22.68-7.64 22.29-6.39 22.29-4.77C22.29-3.18 22.68-1.96 23.45-1.10C24.22-0.25 25.30 0.18 26.69 0.18ZM35.57 0.18C36.21 0.18 36.76 0.13 37.23 0.04C37.70-0.06 38.20-0.22 38.73-0.45L38.73-1.84C38.11-1.57 37.57-1.40 37.11-1.31C36.64-1.21 36.16-1.17 35.64-1.17C34.67-1.17 33.93-1.45 33.40-2.02C32.87-2.59 32.59-3.42 32.56-4.52L39.17-4.52L39.17-5.48C39.17-6.81 38.81-7.87 38.09-8.65C37.37-9.44 36.40-9.83 35.19-9.83C33.88-9.83 32.85-9.37 32.08-8.45C31.31-7.53 30.93-6.30 30.93-4.75C30.93-3.22 31.34-2.01 32.16-1.14C32.99-0.26 34.12 0.18 35.57 0.18ZM35.17-8.53C35.91-8.53 36.48-8.30 36.89-7.83C37.29-7.36 37.50-6.68 37.51-5.77L32.60-5.77C32.68-6.64 32.94-7.32 33.38-7.80C33.82-8.29 34.42-8.53 35.17-8.53ZM45.48 0.18C46.47 0.18 47.30 0.00 47.97-0.34L47.97-1.75C47.15-1.37 46.32-1.19 45.47-1.19C44.56-1.19 43.87-1.50 43.41-2.11C42.95-2.73 42.71-3.62 42.71-4.79C42.71-6.00 42.95-6.92 43.41-7.53C43.87-8.14 44.59-8.45 45.56-8.45C46.14-8.45 46.83-8.29 47.65-7.99L48.13-9.31C47.83-9.46 47.45-9.58 46.99-9.68C46.53-9.78 46.07-9.83 45.60-9.83C44.15-9.83 43.04-9.39 42.25-8.51C41.47-7.64 41.08-6.39 41.08-4.77C41.08-3.18 41.47-1.96 42.24-1.10C43.01-0.25 44.09 0.18 45.48 0.18ZM58.64-4.84C58.64-6.38 58.24-7.59 57.44-8.49C56.64-9.38 55.56-9.83 54.20-9.83C52.78-9.83 51.68-9.39 50.90-8.51C50.11-7.64 49.72-6.41 49.72-4.84C49.72-3.83 49.90-2.95 50.26-2.19C50.63-1.43 51.15-0.84 51.82-0.44C52.49-0.03 53.27 0.18 54.14 0.18C55.55 0.18 56.65-0.27 57.45-1.15C58.24-2.04 58.64-3.27 58.64-4.84ZM51.35-4.84C51.35-7.28 52.29-8.50 54.16-8.50C55.09-8.50 55.80-8.19 56.28-7.58C56.76-6.97 57.01-6.06 57.01-4.84C57.01-3.63 56.77-2.71 56.29-2.08C55.80-1.45 55.10-1.13 54.18-1.13C53.25-1.13 52.55-1.45 52.07-2.08C51.59-2.71 51.35-3.63 51.35-4.84ZM62.64-9.65L61.04-9.65L61.04-3.33C61.04-2.11 61.33-1.22 61.92-0.66C62.51-0.10 63.39 0.18 64.55 0.18C65.24 0.18 65.86 0.05 66.38-0.20C66.91-0.45 67.32-0.81 67.61-1.27L67.68-1.27L67.91 0L69.21 0L69.21-9.65L67.62-9.65L67.62-4.62C67.62-3.40 67.40-2.51 66.95-1.96C66.50-1.41 65.77-1.13 64.78-1.13C64.05-1.13 63.51-1.32 63.16-1.70C62.81-2.08 62.64-2.66 62.64-3.44ZM76.77-9.83C76.18-9.83 75.63-9.66 75.13-9.33C74.62-9.01 74.19-8.52 73.82-7.88L73.75-7.88L73.57-9.65L72.27-9.65L72.27 0L73.85 0L73.85-5.15C73.85-5.75 73.98-6.30 74.22-6.80C74.47-7.29 74.81-7.68 75.25-7.96C75.68-8.24 76.16-8.38 76.67-8.38C77.01-8.38 77.36-8.34 77.71-8.26L77.91-9.72C77.58-9.79 77.20-9.83 76.77-9.83ZM85.99-2.66C85.99-3.11 85.90-3.50 85.72-3.82C85.54-4.15 85.26-4.44 84.87-4.69C84.49-4.95 83.89-5.23 83.09-5.53C82.02-5.94 81.34-6.26 81.04-6.49C80.75-6.72 80.60-7.01 80.60-7.37C80.60-7.73 80.77-8.01 81.11-8.22C81.45-8.43 81.95-8.53 82.61-8.53C83.39-8.53 84.28-8.33 85.25-7.92L85.79-9.18C84.83-9.61 83.81-9.83 82.71-9.83C81.59-9.83 80.70-9.60 80.06-9.14C79.42-8.68 79.09-8.06 79.09-7.27C79.09-6.82 79.18-6.45 79.35-6.13C79.52-5.82 79.80-5.54 80.17-5.30C80.53-5.05 81.17-4.75 82.08-4.39C82.97-4.05 83.59-3.75 83.94-3.49C84.29-3.23 84.46-2.90 84.46-2.52C84.46-2.09 84.28-1.74 83.92-1.49C83.55-1.23 82.97-1.10 82.18-1.10C81.19-1.10 80.17-1.36 79.11-1.87L79.11-0.43C79.86-0.03 80.87 0.18 82.14 0.18C83.36 0.18 84.31-0.07 84.98-0.57C85.66-1.06 85.99-1.76 85.99-2.66ZM92.43 0.18C93.07 0.18 93.63 0.13 94.10 0.04C94.56-0.06 95.07-0.22 95.60-0.45L95.60-1.84C94.98-1.57 94.44-1.40 93.97-1.31C93.51-1.21 93.02-1.17 92.50-1.17C91.54-1.17 90.79-1.45 90.26-2.02C89.74-2.59 89.46-3.42 89.43-4.52L96.04-4.52L96.04-5.48C96.04-6.81 95.68-7.87 94.96-8.65C94.24-9.44 93.27-9.83 92.06-9.83C90.75-9.83 89.71-9.37 88.95-8.45C88.18-7.53 87.79-6.30 87.79-4.75C87.79-3.22 88.21-2.01 89.03-1.14C89.85-0.26 90.99 0.18 92.43 0.18ZM92.04-8.53C92.78-8.53 93.35-8.30 93.75-7.83C94.16-7.36 94.37-6.68 94.38-5.77L89.46-5.77C89.55-6.64 89.81-7.32 90.25-7.80C90.69-8.29 91.28-8.53 92.04-8.53Z"></path></g></g></g></svg>